<svg height="410pt" viewBox="-33 0 410 410.20861" width="410pt" xmlns="http://www.w3.org/2000/svg"><path d="m46.960938 335.808594s-56-231.601563 242.402343-307.199219c0 0 30.796875-11.199219 34.796875-16.402344l-68.398437 94.800781c-58.800781 87.199219-111.601563 134.800782-175.601563 196.800782zm0 0" fill="#fff"/><path d="m46.960938 335.808594 277.199218-323.601563c0-.796875 2.402344 80-24.796875 161.601563-4.402343 13.601562-40.800781 6.398437-47.203125 19.601562-4.398437 9.199219 22 39.199219 16.402344 48-39.601562 64-106.800781 112-221.601562 94.398438zm0 0" fill="#d3d8dd"/><g fill="#444b54"><path d="m336.160156 13.007812c0-2.398437-.398437-4.800781-1.597656-6.800781-.800781-1.597656-1.601562-2.398437-2.402344-3.199219-.398437-.398437-1.199218-.800781-1.597656-1.199218-5.601562-3.601563-13.199219-1.601563-16.402344 4-46 74.800781-98.796875 125.199218-150 174-39.199218 37.199218-76.796875 73.199218-109.199218 117.601562-.398438-20.402344 1.601562-48 10.800781-77.601562 25.601562-80.800782 91.601562-138.398438 196.800781-171.199219 6.398438-2 10-8.800781 8-15.199219-2-6.402344-8.800781-10-15.199219-8-78 24.398438-178.402343 76.796875-212.800781 188-16 51.597656-12 96.796875-8.800781 115.597656-12 19.601563-23.199219 41.199219-32.800781 64.800782-2.398438 6 .402343 13.199218 6.402343 15.601562 1.597657.796875 3.199219.796875 4.398438.796875 4.800781 0 9.199219-2.796875 11.199219-7.597656 8-20 17.199218-38 27.199218-54.800781 15.203125 2 29.601563 3.199218 43.601563 3.199218 80 0 142-34.398437 184.398437-103.199218 3.601563-5.601563 1.601563-13.199219-4-16.398438-5.597656-3.601562-13.199218-1.601562-16.398437 4-42.800781 68.796875-107.601563 99.199219-193.601563 90 33.601563-49.203125 74.402344-88 116.402344-128 43.597656-42 88.800781-84.800781 130-142.800781-2.402344 29.199219-8 69.597656-20.800781 110.398437l-42.398438 17.199219c-6 2.402344-9.203125 9.601563-6.402343 15.601563 2 4.800781 6.402343 7.601562 11.199218 7.601562 1.601563 0 3.203125-.402344 4.402344-.800781l47.597656-19.601563c3.203125-1.199218 5.601563-4 6.800782-7.199218 14.402343-43.199219 20.402343-85.601563 23.199218-114 2.402344-28.800782 2.800782-43.199219 2-50.800782zm0 0"/><path d="m272.160156 409.410156h-160c-6.796875 0-12-5.203125-12-12 0-6.800781 5.203125-12 12-12h160c6.800782 0 12 5.199219 12 12 0 6.796875-5.199218 12-12 12zm0 0"/><path d="m332.160156 409.410156c-3.199218 0-6.398437-1.203125-8.398437-3.601562-2.398438-2.398438-3.601563-5.199219-3.601563-8.398438 0-3.203125 1.203125-6.402344 3.601563-8.402344 4.398437-4.398437 12.398437-4.398437 16.800781 0 .398438.402344 1.199219 1.199219 1.597656 2 .402344.800782.800782 1.199219 1.203125 2 .398438.800782.398438 1.601563.796875 2.402344 0 .796875.402344 1.597656.402344 2.398438 0 3.199218-1.199219 6.398437-3.601562 8.398437-2.398438 2-5.597657 3.203125-8.800782 3.203125zm0 0"/></g></svg>